<svg xmlns="http://www.w3.org/2000/svg" width="140" height="27" viewBox="0 0 140 27">
  <g fill="none" fill-rule="evenodd">
    <path fill="#000" d="M133.807649 12.2636429C133.155196 11.7365 130.502366 11.6836429 127.101008 11.6836429 124.760064 11.6836429 122.78263 11.7365 121.736555 11.8229286 121.166555 11.8700714 120.690479 12.0100714 120.354215 12.2636429 119.753385 12.7250714 119.6738 13.3922143 119.6738 16.8886429 119.6738 17.5600714 119.6738 18.2415 119.703913 18.9136429 119.730442 20.6665 119.837989 21.3393571 120.200781 21.7600714 120.438819 22.0472143 120.884064 22.2415 121.427536 22.3315 122.530253 22.5215 124.844668 22.6307857 127.420781 22.6307857 131.34697 22.6307857 133.275649 22.6307857 133.949611 21.9007857 134.426404 21.3693571 134.543989 20.4907857 134.543989 16.8072143 134.543989 15.6529286 134.684517 13.0057857 133.807649 12.2636429M139.292555 22.3315C139.095385 23.4157857 138.587762 24.3772143 137.82346 25.0865 136.155762 26.6300714 133.637725 26.6893571 127.420781 26.6893571 119.837989 26.6893571 117.832592 26.6300714 116.135498 24.9172143 114.914479 23.6743571 114.667121 22.3500714 114.667121 17.6757857 114.667121 16.6336429 114.667121 15.5950714 114.692932 14.5236429 114.781121 11.6836429 115.207008 10.2407857 116.303272 9.16364286 117.691347 7.87721429 119.613574 7.53935714 126.373272 7.53935714 127.219309 7.53935714 128.889875 7.56078571 131.402894 7.62007143 134.934743 7.68078571 136.155762 7.87721429 137.504404 8.72435714 139.121913 9.71078571 139.572894 11.4557857 139.572894 16.7422143 139.572894 19.5086429 139.469649 21.2522143 139.292555 22.3315M110.374125 25.3279286C109.468577 26.3165 108.388087 26.5972143 106.212049 26.5972143L89.4475962 26.5972143 89.4475962 22.4265 104.607445 22.4265C105.507974 22.4265 105.8722 22.4265 106.236426 22.2079286 106.555483 22.0100714 106.664464 21.6665 106.664464 20.6772143 106.664464 19.8957857 106.577709 19.6429286 106.269408 19.3857857 105.988351 19.1636429 105.732389 19.1065 104.765898 19.1065L95.2157094 19.1065C92.6668415 19.1065 91.8215208 18.9136429 90.7754453 18.0915 89.7329547 17.2765 89.3343132 15.8950714 89.3343132 13.0807857 89.3343132 11.1550714 89.5623132 10.2072143 90.2133321 9.2765 90.521634 8.85792857 90.9496717 8.51507143 91.4544264 8.28792857 92.418766 7.8665 92.8718981 7.81292857 95.1282377 7.81292857L110.903257 7.81292857 110.903257 11.8657857 96.1520868 11.8657857C94.5933698 11.8657857 94.2850679 12.1172143 94.2850679 13.4700714 94.2850679 14.6843571 94.6829925 14.9936429 96.0911434 14.9936429L105.953936 14.9936429C108.818275 14.9936429 110.428615 15.7565 111.164238 17.4386429 111.533483 18.2850714 111.668275 19.2472143 111.668275 20.9065 111.668275 23.1329286 111.332728 24.2850714 110.374125 25.3279286M84.6117736 25.0063571C83.5721509 26.4106429 81.9904906 26.9499286 78.5088302 26.9820714L75.3455094 26.9999286 71.4200377 26.9820714C67.7397736 26.9499286 66.1530943 26.3570714 65.0001887 24.7163571 64.2882264 23.7349286 64.0086038 22.4713571 64.0086038 20.2463571L64.0086038 7.98778571 68.9278113 7.98778571 68.9278113 19.7649286C68.9278113 22.2735 69.432566 22.6685 72.4661132 22.6920714L75.0938491 22.7213571 77.6627925 22.6685C80.4561509 22.6070714 80.8296981 22.2485 80.8296981 19.2285L80.8296981 7.98778571 85.8062642 7.98778571 85.8062642 19.2006429C85.8062642 22.6070714 85.5488679 23.7349286 84.6117736 25.0063571"/>
    <polygon fill="#000" points="39 8 39 27 43.974 27 43.974 19.963 59.165 19.963 59.165 16.009 43.974 16.009 43.974 12.304 60 12.304 60 8"/>
    <polygon fill="red" points="15.462 0 10.304 9.016 15.457 18.001 5.151 18.001 0 27 10.306 27 15.458 18.003 20.617 27 31 27 25.764 18.001 15.459 18.001 20.604 9.016"/>
  </g>
</svg>
